<svg width="14" height="14" viewBox="0 0 14 14" fill="none" xmlns="http://www.w3.org/2000/svg">
<g opacity="0.3">
<path fill-rule="evenodd" clip-rule="evenodd" d="M11.5099 10.93V7L11.5699 6.97V3.03C11.5431 2.73627 11.3131 2.50208 11.0199 2.47H9.83988C9.42959 2.47877 9.0468 2.2644 8.83988 1.91C8.70918 1.71193 8.64604 1.4769 8.65988 1.24C8.67072 0.967 8.78097 0.707377 8.96988 0.509999C9.13927 0.317686 9.36804 0.187462 9.61988 0.139999H10.9399C11.586 0.141159 12.2129 0.359526 12.7199 0.759999C13.0914 1.04444 13.3925 1.41055 13.5999 1.83C13.7423 2.11102 13.8305 2.41634 13.8599 2.73V10.93C13.8673 11.4256 13.7468 11.9147 13.5099 12.35C13.3264 12.6767 13.086 12.968 12.7999 13.21C12.6116 13.3753 12.4033 13.5164 12.1799 13.63C11.9516 13.75 11.7049 13.8311 11.4499 13.87C11.2367 13.8814 11.0231 13.8814 10.8099 13.87H9.80988C9.55926 13.8709 9.31583 13.7863 9.11988 13.63C8.86588 13.4397 8.70008 13.1544 8.66048 12.8396C8.62088 12.5247 8.7109 12.2072 8.90988 11.96C9.07573 11.749 9.30853 11.6009 9.56988 11.54H10.8399C10.9849 11.5487 11.1288 11.5101 11.2499 11.43C11.4157 11.3182 11.5136 11.13 11.5099 10.93ZM6.22988 8.13L6.30988 8.06V8.05H1.30988C1.02263 8.05507 0.744053 7.9515 0.529884 7.76C0.33407 7.60288 0.196721 7.38454 0.139884 7.14C0.058082 6.78747 0.146995 6.417 0.379884 6.14C0.562565 5.91914 0.817715 5.77031 1.09988 5.72H6.33988L6.25988 5.64L4.75988 4.14C4.4784 3.88755 4.33363 3.51636 4.36988 3.14C4.38488 2.8933 4.47964 2.65816 4.63988 2.47C4.81379 2.25066 5.06351 2.10439 5.33988 2.06C5.69907 1.98021 6.07436 2.0853 6.33988 2.34L9.72988 5.73C9.76692 5.7695 9.80396 5.8084 9.84084 5.84714C9.95335 5.96529 10.0645 6.08197 10.1699 6.21C10.2993 6.37637 10.3728 6.57937 10.3799 6.79C10.3969 6.99729 10.3553 7.20519 10.2599 7.39C10.2099 7.48867 10.1459 7.57961 10.0699 7.66L8.34988 9.38L6.49988 11.24C6.29348 11.4597 6.01081 11.5921 5.70988 11.61C5.35286 11.6414 5.00159 11.5046 4.75988 11.24C4.42296 10.8808 4.347 10.3491 4.56988 9.91C4.629 9.79175 4.70665 9.68372 4.79988 9.59L6.22988 8.13Z" fill="white"/>
<path d="M6.30988 8.06H1.30988C1.02263 8.06507 0.744053 7.9615 0.529884 7.77C0.33407 7.61289 0.196721 7.39454 0.139884 7.15C0.058082 6.79747 0.146995 6.427 0.379884 6.15C0.55765 5.91796 0.813407 5.75811 1.09988 5.7H6.33988L6.25988 5.62L4.75988 4.12C4.4784 3.86755 4.33363 3.49636 4.36988 3.12C4.38488 2.8733 4.47964 2.63816 4.63988 2.45C4.81379 2.23066 5.06351 2.08439 5.33988 2.04C5.69907 1.96021 6.07436 2.0653 6.33988 2.32L9.72988 5.7C9.87988 5.85 10.0299 6.01 10.1699 6.18C10.2993 6.34637 10.3728 6.54937 10.3799 6.76C10.3969 6.96729 10.3553 7.17519 10.2599 7.36C10.2099 7.45867 10.1459 7.54961 10.0699 7.63L8.34988 9.38L6.50988 11.24C6.30348 11.4597 6.02081 11.5921 5.71988 11.61C5.36286 11.6414 5.01159 11.5046 4.76988 11.24C4.43296 10.8808 4.357 10.3491 4.57988 9.91C4.639 9.79176 4.71665 9.68372 4.80988 9.59L6.23988 8.15L6.31988 8.08L6.30988 8.06Z" fill="white"/>
<path d="M11.5098 7V3.06C11.4912 2.77528 11.2807 2.54001 10.9998 2.49H9.81981C9.40952 2.49877 9.02673 2.2844 8.81981 1.93C8.68911 1.73193 8.62597 1.4969 8.63981 1.26C8.65907 0.973051 8.78797 0.704507 8.99981 0.509999C9.1692 0.317686 9.39797 0.187462 9.64981 0.139999H10.9698C11.6159 0.141159 12.2428 0.359526 12.7498 0.759999C13.1069 1.0392 13.3973 1.39448 13.5998 1.8C13.7422 2.08102 13.8304 2.38634 13.8598 2.7V10.9C13.8673 11.3956 13.7467 11.8847 13.5098 12.32C13.3264 12.6467 13.0859 12.938 12.7998 13.18C12.6115 13.3453 12.4032 13.4864 12.1798 13.6C11.9515 13.72 11.7048 13.8011 11.4498 13.84C11.2366 13.8515 11.023 13.8515 10.8098 13.84H9.80981C9.55919 13.8409 9.31576 13.7563 9.11981 13.6C8.63437 13.208 8.54197 12.504 8.90981 12C9.07565 11.789 9.30846 11.6409 9.56981 11.58H10.8398C10.9848 11.5887 11.1287 11.5501 11.2498 11.47C11.4156 11.3582 11.5135 11.17 11.5098 10.97V7.04V7Z" fill="white"/>
</g>
</svg>
